<svg xmlns="http://www.w3.org/2000/svg" viewBox="0 0 512 512" width="512" height="512">
  <defs>
    <linearGradient id="bg-grad" x1="0%" y1="0%" x2="100%" y2="100%">
      <stop offset="0%" stop-color="#00A8E8" />
      <stop offset="100%" stop-color="#003459" />
    </linearGradient>
    <filter id="shadow" x="-20%" y="-20%" width="140%" height="140%">
      <feDropShadow dx="0" dy="10" stdDeviation="15" flood-opacity="0.3" />
    </filter>
  </defs>
  
  <rect width="512" height="512" rx="112" fill="url(#bg-grad)" />
  
  <g filter="url(#shadow)">
    <!-- Sun -->
    <circle cx="360" cy="180" r="45" fill="#FFD166" />
    
    <!-- Location Pin -->
    <path d="M256 120c-53 0-96 43-96 96 0 72 96 176 96 176s96-104 96-176c0-53-43-96-96-96zm0 136c-22 0-40-18-40-40s18-40 40-40 40 18 40 40-18 40-40 40z" fill="#FFFFFF" />
    
    <!-- Waves -->
    <path d="M140 400c25-15 45-15 70 0 25 15 45 15 70 0 25-15 45-15 70 0 25 15 45 15 70 0v20c-25-15-45-15-70 0-25 15-45 15-70 0-25-15-45-15-70 0-25 15-45 15-70 0v-20z" fill="#00E5FF" opacity="0.8" />
    <path d="M120 440c25-15 45-15 70 0 25 15 45 15 70 0 25-15 45-15 70 0 25 15 45 15 70 0 25-15 45-15 70 0v20c-25-15-45-15-70 0-25 15-45 15-70 0-25-15-45-15-70 0-25 15-45 15-70 0v-20z" fill="#FFFFFF" opacity="0.6" />
  </g>
</svg>
